PathFileType	4	(X/Y/Z)	25_coords_data.trc
DataRate	CameraRate	NumFrames	NumMarkers	Units	OrigDataRate	OrigDataStartFrame	OrigNumFrames
30.0	30.0	5	21	m	30.0	55	65
Frame#	Time	THUMB_TIP	THUMB_IP	THUMB_MCP	THUMB_CMC	INDEX_TIP	INDEX_DIP	INDEX_PIP	INDEX_MCP	MIDDLE_TIP	MIDDLE_DIP	MIDDLE_PIP	MIDDLE_MCP	RING_TIP	RING_DIP	RING_PIP	RING_MCP	PINKY_TIP	PINKY_DIP	PINKY_PIP	PINKY_MCP	WRIST
X1	Y1	Z1	X2	Y2	Z2	X3	Y3	Z3	X4	Y4	Z4	X5	Y5	Z5	X6	Y6	Z6	X7	Y7	Z7	X8	Y8	Z8	X9	Y9	Z9	X10	Y10	Z10	X11	Y11	Z11	X12	Y12	Z12	X13	Y13	Z13	X14	Y14	Z14	X15	Y15	Z15	X16	Y16	Z16	X17	Y17	Z17	X18	Y18	Z18	X19	Y19	Z19	X20	Y20	Z20	X21	Y21	Z21
54	1.8	-0.014872900009155273	-0.0391172981262207	0.888948974609375	-0.026451799392700197	-0.02087540054321289	0.9089450073242188	-0.04206650161743164	-0.003125960111618042	0.9324110107421875	-0.05844139862060547	0.02356520080566406	0.9534039916992187	0.00030224800109863206	0.03192779922485352	0.81960302734375	-0.01341349983215332	0.030026100158691407	0.8390910034179687	-0.028319900512695312	0.028681100845336913	0.857635009765625	-0.05127450180053711	0.028746599197387694	0.8932379760742187	-0.010677800178527833	0.07407140350341797	0.8120289916992187	-0.024125600814819338	0.06656890106201171	0.83256201171875	-0.04104579925537109	0.05949990081787109	0.8544869995117188	-0.058411201477050784	0.05100220108032227	0.8940159912109376	-0.017816900253295898	0.09970349884033203	0.8272109985351562	-0.029421499252319336	0.09119599914550781	0.8468599853515625	-0.0434281997680664	0.08191919708251953	0.86847802734375	-0.058356201171875	0.06925479888916015	0.9029669799804687	-0.0297726993560791	0.11976499938964844	0.8604290161132813	-0.03700600051879883	0.10935399627685546	0.8778270263671875	-0.04415359878540039	0.09959950256347656	0.892281005859375	-0.05481159973144531	0.08393990325927735	0.9155020141601562	-0.0895614013671875	0.04131480026245117	0.9767559814453125
55	1.8333333333333333	-0.014779299736022948	-0.03890579986572266	0.8887739868164063	-0.026475999832153322	-0.020691999435424803	0.908822998046875	-0.04210929870605469	-0.002952310085296631	0.93231201171875	-0.05862739944458008	0.02364019966125488	0.9533839721679688	0.0007325289845466611	0.032412498474121094	0.8197009887695312	-0.013037500381469726	0.030407499313354493	0.8390490112304687	-0.027993099212646484	0.029012100219726562	0.8576370239257812	-0.051161800384521484	0.02889229965209961	0.89322900390625	-0.010242500305175782	0.07455760192871094	0.8122689819335938	-0.023785900115966797	0.06691419982910156	0.8326179809570312	-0.04087179946899414	0.059755699157714844	0.8545120239257813	-0.05830459976196289	0.05114609909057617	0.8940750122070312	-0.017581199645996092	0.09981199645996094	0.8271110229492188	-0.0292593994140625	0.09127010345458984	0.8469119873046875	-0.04332080078125	0.08201110076904297	0.8684949951171875	-0.05832369995117188	0.0694281005859375	0.9030079956054687	-0.029639400482177735	0.11973500061035157	0.860531005859375	-0.03692530059814453	0.1093479995727539	0.8779509887695313	-0.04400510025024414	0.09966190338134766	0.8923590087890625	-0.05490340042114258	0.08402880096435547	0.9157429809570312	-0.09000530242919921	0.041272098541259766	0.9769340209960937
56	1.8666666666666667	-0.01472070026397705	-0.038837398529052734	0.8887769775390625	-0.026435400009155275	-0.020562299728393553	0.90885302734375	-0.042114299774169923	-0.002952150106430053	0.9322960205078125	-0.05872010040283203	0.023677200317382813	0.953448974609375	0.000725233018398284	0.032513099670410155	0.8196430053710938	-0.01303279972076416	0.03055349922180176	0.839094970703125	-0.027990400314331056	0.02909320068359375	0.8576099853515625	-0.051221500396728514	0.02896109962463379	0.89322802734375	-0.010369999885559082	0.07460050201416016	0.8121519775390625	-0.023895599365234374	0.06699629974365234	0.8325670166015625	-0.04093019866943359	0.05983169937133789	0.8544530029296875	-0.05837620162963867	0.05116579818725586	0.8939829711914062	-0.017767499923706055	0.099606201171875	0.8270960083007812	-0.02934480094909668	0.09119249725341796	0.8468109741210937	-0.043340099334716796	0.08196320343017578	0.8684459838867188	-0.058385501861572264	0.06946179962158203	0.9030980224609375	-0.029818700790405273	0.11949600219726562	0.8602670288085937	-0.03705609893798828	0.1092229995727539	0.8777150268554688	-0.04421310043334961	0.09956780242919921	0.892239013671875	-0.054922798156738284	0.08409940338134765	0.9155709838867188	-0.08991329956054687	0.04126979827880859	0.9768250122070312
57	1.9	-0.01496909999847412	-0.03884529876708984	0.8886680297851562	-0.026583999633789063	-0.02068709945678711	0.9086500244140625	-0.04228929901123047	-0.00315120005607605	0.9321530151367188	-0.05874959945678711	0.023549999237060547	0.9532550048828125	0.00051173597574234	0.03229850006103516	0.8195440063476562	-0.013303899765014648	0.030362499237060546	0.838989990234375	-0.02826740074157715	0.028979700088500978	0.8575089721679687	-0.051472900390625	0.02889259910583496	0.8929910278320312	-0.010206600189208985	0.07470850372314453	0.8123870239257812	-0.0237898006439209	0.0670229034423828	0.8327160034179687	-0.04099079895019531	0.0598297004699707	0.8544959716796875	-0.058667999267578125	0.051149600982666014	0.8938880004882812	-0.01718280029296875	0.09951909637451171	0.8273079833984375	-0.029128400802612305	0.09108769989013672	0.846948974609375	-0.04339099884033203	0.08191649627685547	0.868448974609375	-0.05851340103149414	0.06941539764404298	0.9029520263671875	-0.029414400100708008	0.11924099731445313	0.8603489990234375	-0.03684640121459961	0.10906300354003906	0.8776719970703125	-0.04401079940795898	0.0994446029663086	0.8921900024414062	-0.054922000885009765	0.08396469879150391	0.9155650024414063	-0.09006549835205079	0.0412156982421875	0.9766409912109375
58	1.9333333333333333	-0.014936200141906738	-0.038797199249267576	0.8885360107421875	-0.026675800323486328	-0.020641700744628906	0.908593017578125	-0.042422100067138674	-0.003041440010070801	0.93210498046875	-0.058897300720214846	0.023498199462890626	0.9530830078125	0.000715844988822937	0.032417198181152344	0.8196640014648438	-0.013157999992370606	0.0304325008392334	0.8389730224609375	-0.028196199417114258	0.029055700302124024	0.8574970092773437	-0.05138880157470703	0.02887220001220703	0.8929580078125	-0.009850760459899903	0.07488089752197266	0.8127410278320313	-0.02349259948730469	0.0671978988647461	0.83285498046875	-0.04086429977416992	0.059981098175048826	0.8545260009765625	-0.05866500091552734	0.05117950057983398	0.893969970703125	-0.01672489929199219	0.09946739959716797	0.8276179809570312	-0.02879010009765625	0.0910718994140625	0.8470349731445312	-0.04319260025024414	0.08194899749755859	0.868458984375	-0.058520801544189455	0.06944210052490235	0.902989990234375	-0.02906209945678711	0.11902200317382812	0.8603579711914062	-0.03673320007324219	0.10887300109863281	0.8779030151367188	-0.04381010055541992	0.09938379669189454	0.8922509765625	-0.054894401550292966	0.08394750213623046	0.9155960083007812	-0.09046219635009765	0.04134450149536133	0.9764840087890625
